<?xml version="1.0" encoding="UTF-8"?>
<svg xmlns="http://www.w3.org/2000/svg" width="2515.52" height="1760.05" xmlns:xlink="http://www.w3.org/1999/xlink" viewBox="0 0 2515.52 1760.05">
  <defs>
    <symbol id="head_reg_f" viewBox="0 0 50.01 67.4">
      <path d="M49.96,36.87c-.52,8.27-4.15,12.21-6.91,12.74-.83,6.8-7.02,17.79-18.05,17.79S7.78,56.41,6.95,49.61c-2.76-.53-6.39-4.47-6.91-12.74-.51-8.02,3.6-3.47,3.86-3.18-1-9.66-1.3-19.06,1.92-24.2C9.48,3.62,15.8,0,24.87,0h.26c9.07,0,15.39,2.62,19.05,8.49,3.22,5.14,2.92,15.54,1.92,25.2.26-.29,4.37-4.84,3.86,3.18Z" fill="#ffeadb"/>
    </symbol>
    <symbol id="head_reg_m" viewBox="0 0 50.01 69.4">
      <path d="M49.96,37.87c-.52,8.27-3.15,12.21-5.91,12.74-.83,6.8-8.02,18.79-19.05,18.79S6.78,57.41,5.95,50.61c-2.76-.53-5.39-4.47-5.91-12.74-.51-8.02,3.6-3.47,3.86-3.18-1-9.66-1.3-20.06,1.92-25.2C9.48,3.62,15.8,0,24.87,0h.26c9.07,0,15.39,3.62,19.05,9.49,3.22,5.14,2.92,15.54,1.92,25.2.26-.29,4.37-4.84,3.86,3.18Z" fill="#ffeadb"/>
    </symbol>
    <symbol id="hips_reg_f" viewBox="0 0 98.08 84.56">
      <path d="M51.97,75.06c17.45,18.8,46.11,5.5,46.11-4.11,0-10.86-2.39-32.76-4.67-40.12-2.27-7.36-6.38-22.25-6.38-22.25,0-.09-.1-8.58-37.99-8.58S11.05,8.49,11.05,8.58c0,0-4.11,14.89-6.38,22.25C2.39,38.19,0,60.09,0,70.95c0,9.61,28.66,22.91,46.11,4.11h5.86Z" fill="#ffeadb"/>
    </symbol>
    <symbol id="hips_reg_m" viewBox="0 0 96.08 84.56">
      <g>
        <path d="M96.08,70.95c0,9.61-23.66,22.91-41.11,4.11-1.97,2.3-4.33,4.06-6.93,4.06s-4.96-1.76-6.93-4.06C23.66,93.86,0,80.56,0,70.95c0-10.86,3.39-32.76,5.67-40.12,2.27-7.36,4.38-22.25,4.38-22.25,0-.09.1-8.58,37.99-8.58s37.99,8.49,37.99,8.58c0,0,2.11,14.89,4.38,22.25,2.28,7.36,5.67,29.26,5.67,40.12Z" fill="#ffeadb"/>
        <path d="M41.11,75.06" fill="#ffeadb"/>
        <path d="M54.97,75.06" fill="#ffeadb"/>
      </g>
    </symbol>
    <symbol id="leftArm_reg_f" viewBox="0 0 31.28 194.58">
      <path d="M10.33,17.27s.29,12.09-1.28,18.39-1.58,24.31-1.58,24.31c0,0,.34,5.39-1.36,12.09s-1.8,6.21-2.5,21.76-.84,33.18-1.21,44.91c-.19,5.89-.53,14.58-1.84,23.65s-.04,15.02,1.01,17.39,7.36,12.48,11.43,14.45c4.07,1.97,3.2-4.25.04-8.45-3.15-4.2-6.18-5.91-5.39-13.93.58-5.91,5.47-9.28,5.87-2.58s.88,12.49,3.71,12.04c3.34-.54,2.59-6.7,2.34-9.28-.44-4.41-2.96-18.73-5.26-21.14-4.31-4.53.57-19.37.57-19.37l6.36-25.8s3.24-14.93,3.11-20.32,1.37-17.47,2.23-20.59c1.12-4.07,4.07-25.31,4.2-34.55.13-9.24,1.5-18.98-.97-24.61S14.42-7.74,10.33,17.27Z" fill="#ffeadb"/>
    </symbol>
    <symbol id="leftArm_reg_m" viewBox="0 0 31.88 195.58">
      <path d="M9.33,17.27s.29,12.09-1.28,18.39c-1.58,6.31-1.58,24.31-1.58,24.31,0,0-.66,5.39-2.36,12.09-1.71,6.7-1.8,5.21-2.5,20.76s1.16,35.18.79,46.91c-.19,5.89-.53,14.58-1.84,23.65-1.31,9.01-.04,15.02,1.01,17.39s7.36,12.48,11.43,14.45c4.07,1.97,3.2-4.25.04-8.45-3.15-4.2-6.18-5.91-5.39-13.93.58-5.91,5.47-9.28,5.87-2.58.39,6.7,1.88,13.49,4.71,13.04,3.34-.54,1.59-7.7,1.34-10.28-.74-7.53,2.01-16.6-3.26-22.14-4.31-4.53-1.43-18.37-1.43-18.37l7.36-26.8s3.24-14.93,3.11-20.32,1.37-17.47,2.23-20.59c1.12-4.07,4.07-25.31,4.2-34.55.13-9.24.5-18.98-1.97-24.61C27.45.23,13.42-7.74,9.33,17.27Z" fill="#ffeadb"/>
    </symbol>
    <symbol id="leftLeg_reg_f" viewBox="0 0 47.53 269.89">
      <path d="M.03,10.16s-.8,30.91,5.5,66.47,5.15,61.84,5.15,61.84c0,0-2.33,32.58,3.28,50.98s6.61,41.87,6.08,45.02-3.24,5.08.22,8.41c0,0-4.17,15.07-6.63,18.39s-.75,6.13,1.2,6.83,11.74,1.75,11.74,1.75c0,0,5.78.88,9.46-5.43,0,0-2.93-15.59-1-21.02s0-10.86,0-10.86c0,0-2.98-13.49-.18-28.2,2.8-14.72,4.18-37.84,2.08-55.18s3.75-32.93,3.75-32.93c0,0,2.75-47.47,4.68-58.69,1.77-10.3,2.15-47.37,2.15-47.37,0,0-28.23-22.85-47.5,0Z" fill="#ffeadb"/>
    </symbol>
    <symbol id="leftLeg_reg_m" viewBox="0 0 45.12 269.89">
      <path d="M.62,10.16s-2.8,30.91,3.5,66.47,3.15,61.84,3.15,61.84c0,0-3.33,32.58,2.28,50.98,5.61,18.39,5.61,41.87,5.08,45.02s-3.24,5.08.22,8.41c0,0-6.17,15.07-8.63,18.39-2.45,3.33-.75,6.13,1.2,6.83s14.74,1.75,14.74,1.75c0,0,5.78.88,9.46-5.43,0,0-1.93-15.59,0-21.02s0-10.86,0-10.86c0,0-2.98-13.49-.18-28.2s7.18-37.84,5.08-55.18c-2.1-17.34,1.75-32.93,1.75-32.93,0,0,1.75-47.47,3.68-58.69,1.77-10.3,3.15-47.37,3.15-47.37,0,0-25.23-22.85-44.5,0Z" fill="#ffeadb"/>
    </symbol>
    <symbol id="neck_reg_f" viewBox="0 0 27.4 50.68">
      <path d="M27.15,9.55v19.27c0,7.04-4.67,21.86-13.45,21.86S.25,35.86.25,28.82V9.55S-2.96,0,13.7,0s13.45,9.55,13.45,9.55Z" fill="#ffeadb"/>
    </symbol>
    <symbol id="neck_reg_m" viewBox="0 0 32.9 51.68">
      <path d="M32.9,9.55v19.27c0,7.04-7.67,22.86-16.45,22.86S0,35.86,0,28.82V9.55S-.21,0,16.45,0s16.45,9.55,16.45,9.55Z" fill="#ffeadb"/>
    </symbol>
    <symbol id="rightArm_reg_f" viewBox="0 0 31.28 194.58">
      <path d="M20.95,17.27s-.29,12.09,1.28,18.39c1.58,6.31,1.58,24.31,1.58,24.31,0,0-.34,5.39,1.36,12.09,1.71,6.7,1.8,6.21,2.5,21.76s.84,33.18,1.21,44.91c.19,5.89.53,14.58,1.84,23.65,1.31,9.01.04,15.02-1.01,17.39s-7.36,12.48-11.43,14.45c-4.07,1.97-3.2-4.25-.04-8.45,3.15-4.2,6.18-5.91,5.39-13.93-.58-5.91-5.47-9.28-5.87-2.58-.39,6.7-.88,12.49-3.71,12.04-3.34-.54-2.59-6.7-2.34-9.28.44-4.41,2.96-18.73,5.26-21.14,4.31-4.53-.57-19.37-.57-19.37l-6.36-25.8s-3.24-14.93-3.11-20.32-1.37-17.47-2.23-20.59C3.58,60.71.63,39.47.5,30.23S-1.01,11.25,1.47,5.62s15.4-13.36,19.48,11.65Z" fill="#ffeadb"/>
    </symbol>
    <symbol id="rightArm_reg_m" viewBox="0 0 31.88 195.58">
      <path d="M22.55,17.27s-.29,12.09,1.28,18.39,1.58,24.31,1.58,24.31c0,0,.66,5.39,2.36,12.09s1.8,5.21,2.5,20.76-1.16,35.18-.79,46.91c.19,5.89.53,14.58,1.84,23.65,1.31,9.01.04,15.02-1.01,17.39s-7.36,12.48-11.43,14.45c-4.07,1.97-3.2-4.25-.04-8.45,3.15-4.2,6.18-5.91,5.39-13.93-.58-5.91-5.47-9.28-5.87-2.58s-1.88,13.49-4.71,13.04c-3.34-.54-1.59-7.7-1.34-10.28.74-7.53-2.01-16.6,3.26-22.14,4.31-4.53,1.43-18.37,1.43-18.37l-7.36-26.8s-3.24-14.93-3.11-20.32-1.37-17.47-2.23-20.59C3.18,60.71.23,39.47.1,30.23S-.4,11.25,2.07,5.62s16.4-13.36,20.48,11.65Z" fill="#ffeadb"/>
    </symbol>
    <symbol id="rightLeg_reg_f" viewBox="0 0 47.53 269.89">
      <path d="M47.5,10.16s.8,30.91-5.5,66.47-7.15,61.84-7.15,61.84c0,0,4.33,32.58-1.28,50.98s-6.61,41.87-6.08,45.02c.53,3.15,3.24,5.08-.22,8.41,0,0,4.17,15.07,6.63,18.39s.75,6.13-1.2,6.83-11.74,1.75-11.74,1.75c0,0-5.78.88-9.46-5.43,0,0,2.93-15.59,1-21.02s0-10.86,0-10.86c0,0,2.98-13.49.18-28.2-2.8-14.72-6.18-37.84-4.08-55.18s-1.75-32.93-1.75-32.93c0,0-2.75-47.47-4.68-58.69C.38,47.23,0,10.16,0,10.16c0,0,28.23-22.85,47.5,0Z" fill="#ffeadb"/>
    </symbol>
    <symbol id="rightLeg_reg_m" viewBox="0 0 45.12 269.89">
      <path d="M44.5,10.16s2.8,30.91-3.5,66.47-3.15,61.84-3.15,61.84c0,0,3.33,32.58-2.28,50.98-5.61,18.39-5.61,41.87-5.08,45.02.53,3.15,3.24,5.08-.22,8.41,0,0,6.17,15.07,8.63,18.39s.75,6.13-1.2,6.83-14.74,1.75-14.74,1.75c0,0-5.78.88-9.46-5.43,0,0,1.93-15.59,0-21.02s0-10.86,0-10.86c0,0,2.98-13.49.18-28.2-2.8-14.72-7.18-37.84-5.08-55.18,2.1-17.34-1.75-32.93-1.75-32.93,0,0-1.75-47.47-3.68-58.69C1.38,47.23,0,10.16,0,10.16c0,0,25.23-22.85,44.5,0Z" fill="#ffeadb"/>
    </symbol>
    <symbol id="shoulders_reg_f" viewBox="0 0 123.27 64.83">
      <path d="M122.89,64.83h-20.47s7.2-20.64-40.78-20.64-40.78,20.64-40.78,20.64H.39c-.52-9.28-1.52-22.94,4.96-30.13,6.48-7.18,17.92-9.52,25.9-12.12,6.79-2.22,15.04-8.64,22-19.08,0,0,1.98-3.5,8.39-3.5s8.39,3.5,8.39,3.5c6.96,10.44,15.21,16.86,22,19.08,7.98,2.6,19.42,4.94,25.9,12.12,6.48,7.19,5.48,20.85,4.96,30.13Z" fill="#ffeadb"/>
    </symbol>
    <symbol id="shoulders_reg_m" viewBox="0 0 134.91 64.83">
      <path d="M134.7,64.83h-22.47s3.2-19.64-44.78-19.64-44.78,19.64-44.78,19.64H.2c-.52-9.28-.52-22.94,5.96-30.13,6.48-7.18,22.92-10.52,30.9-13.12,6.79-2.22,15.04-7.64,22-18.08,0,0,1.98-3.5,8.39-3.5s8.39,3.5,8.39,3.5c6.96,10.44,15.21,15.86,22,18.08,7.98,2.6,24.42,5.94,30.9,13.12,6.48,7.19,6.48,20.85,5.96,30.13Z" fill="#ffeadb"/>
    </symbol>
    <symbol id="torso_reg_f" viewBox="0 0 90.04 143.65">
      <path d="M84.32,32.14s2.25,16.6-2.66,31.67c0,0-5.05,16.95-4.35,26.24.7,9.28,6.05,18.24,5.7,22.44-.35,4.21-1.71,31.16-37.99,31.16S7.38,116.7,7.03,112.49c-.35-4.2,5-13.16,5.7-22.44.7-9.29-4.35-26.24-4.35-26.24-4.91-15.07-2.66-31.67-2.66-31.67C5.72,32.14-22.11,0,45.02,0s39.3,32.14,39.3,32.14Z" fill="#ffeadb"/>
    </symbol>
    <symbol id="torso_reg_m" viewBox="0 0 96.08 143.65">
      <path d="M92.34,37.14s1.25,11.6-3.66,26.67c0,0-4.05,16.95-3.35,26.24.7,9.28,1.05,15.24.7,19.44-.35,4.21-1.71,34.16-37.99,34.16S10.4,113.7,10.05,109.49c-.35-4.2,0-10.16.7-19.44.7-9.29-3.35-26.24-3.35-26.24-4.91-15.07-3.66-26.67-3.66-26.67C3.74,37.14-19.09,0,48.04,0s44.3,37.14,44.3,37.14Z" fill="#ffeadb"/>
    </symbol>
  </defs>
  <g id="avatar_regular_male">
    <use width="45.12" height="269.89" transform="translate(1399.92 1490.15)" xlink:href="#rightLeg_reg_m"/>
    <use width="45.12" height="269.89" transform="translate(1348.96 1490.15)" xlink:href="#leftLeg_reg_m"/>
    <use width="31.88" height="195.58" transform="translate(1441.57 1345.01)" xlink:href="#rightArm_reg_m"/>
    <use width="31.88" height="195.58" transform="translate(1320.54 1345.01)" xlink:href="#leftArm_reg_m"/>
    <use width="96.08" height="84.56" transform="translate(1348.96 1438.88)" xlink:href="#hips_reg_m"/>
    <use width="134.91" height="64.83" transform="translate(1329.54 1301.19)" xlink:href="#shoulders_reg_m"/>
    <use width="96.08" height="143.65" transform="translate(1348.95 1337.97)" xlink:href="#torso_reg_m"/>
    <use width="32.9" height="51.68" transform="translate(1380.55 1282.44)" xlink:href="#neck_reg_m"/>
    <use width="50.01" height="69.4" transform="translate(1371.99 1236.32)" xlink:href="#head_reg_m"/>
  </g>
  <g id="avatar_regular_female">
    <use width="47.53" height="269.89" transform="translate(2445.33 1488.37)" xlink:href="#rightLeg_reg_f"/>
    <use width="47.53" height="269.89" transform="translate(2394.91 1488.37)" xlink:href="#leftLeg_reg_f"/>
    <use width="31.28" height="194.58" transform="translate(2484.24 1343.23)" xlink:href="#rightArm_reg_f"/>
    <use width="31.28" height="194.58" transform="translate(2372.25 1343.23)" xlink:href="#leftArm_reg_f"/>
    <use width="98.08" height="84.56" transform="translate(2394.85 1437.1)" xlink:href="#hips_reg_f"/>
    <use width="123.27" height="64.83" transform="translate(2382.25 1303.42)" xlink:href="#shoulders_reg_f"/>
    <use width="90.04" height="143.65" transform="translate(2398.87 1336.18)" xlink:href="#torso_reg_f"/>
    <use width="27.4" height="50.68" transform="translate(2430.19 1282.63)" xlink:href="#neck_reg_f"/>
    <use width="50.01" height="67.4" transform="translate(2418.88 1238.1)" xlink:href="#head_reg_f"/>
  </g>
</svg>